<svg width="24" height="24" viewBox="0 0 24 24" fill="none" xmlns="http://www.w3.org/2000/svg">
<g clip-path="url(#clip0_14_11105)">
<path d="M5.67077 4.25694C9.59877 1.03794 15.4038 1.26194 19.0708 4.92894C22.9758 8.83394 22.9758 15.1659 19.0708 19.0709C15.1658 22.9759 8.83377 22.9759 4.92877 19.0709C3.7304 17.8742 2.85585 16.3925 2.38723 14.7651C1.91861 13.1376 1.87131 11.4177 2.24977 9.76694L2.32677 9.45394L4.26077 9.96394C3.78131 11.7862 3.96046 13.7192 4.76665 15.4223C5.57283 17.1254 6.95431 18.4893 8.6676 19.2736C10.3809 20.0579 12.3161 20.2123 14.132 19.7095C15.948 19.2067 17.5282 18.0791 18.5942 16.5254C19.6602 14.9716 20.1435 13.0914 19.959 11.2162C19.7745 9.34097 18.934 7.59105 17.5856 6.27484C16.2373 4.95863 14.4676 4.1606 12.5884 4.0214C10.7093 3.8822 8.84136 4.41076 7.31377 5.51394L7.09277 5.67994L8.10977 6.69694L3.51377 7.75694L4.57377 3.16094L5.66977 4.25694H5.67077ZM12.9998 5.99994V7.99994H15.4998V9.99994H9.99977C9.87482 9.99971 9.75432 10.0463 9.66199 10.1304C9.56965 10.2146 9.51218 10.3303 9.50089 10.4548C9.4896 10.5792 9.52531 10.7033 9.60099 10.8028C9.67667 10.9022 9.78682 10.9697 9.90977 10.9919L9.99977 10.9999H13.9998C14.6628 10.9999 15.2987 11.2633 15.7675 11.7322C16.2364 12.201 16.4998 12.8369 16.4998 13.4999C16.4998 14.163 16.2364 14.7989 15.7675 15.2677C15.2987 15.7365 14.6628 15.9999 13.9998 15.9999H12.9998V17.9999H10.9998V15.9999H8.49977V13.9999H13.9998C14.1247 14.0002 14.2452 13.9536 14.3376 13.8694C14.4299 13.7852 14.4874 13.6695 14.4986 13.5451C14.5099 13.4207 14.4742 13.2965 14.3986 13.1971C14.3229 13.0977 14.2127 13.0302 14.0898 13.0079L13.9998 12.9999H9.99977C9.33673 12.9999 8.70084 12.7365 8.232 12.2677C7.76316 11.7989 7.49977 11.163 7.49977 10.4999C7.49977 9.83689 7.76316 9.20101 8.232 8.73217C8.70084 8.26333 9.33673 7.99994 9.99977 7.99994H10.9998V5.99994H12.9998Z" fill="white"/>
</g>
<defs>
<clipPath id="clip0_14_11105">
<rect width="24" height="24" fill="white"/>
</clipPath>
</defs>
</svg>
